<svg xmlns="http://www.w3.org/2000/svg" width="720" height="360" viewBox="0 0 720 360">
<rect width="100%" height="100%" fill="white"/>
<text x="360.0" y="28" text-anchor="middle" font-family="Helvetica" font-size="16">Look Twice v4 W7900D smoke (N=16/policy): safe success rate</text>
<rect x="75.0" y="180.0" width="70.0" height="120.0" fill="#1f77b4"/>
<text x="110.0" y="316" text-anchor="middle" font-family="Helvetica" font-size="9" transform="rotate(-25 110.0,316)">conformal-only</text>
<text x="110.0" y="174.0" text-anchor="middle" font-family="Helvetica" font-size="11">0.50</text>
<rect x="175.0" y="180.0" width="70.0" height="120.0" fill="#1f77b4"/>
<text x="210.0" y="316" text-anchor="middle" font-family="Helvetica" font-size="9" transform="rotate(-25 210.0,316)">lineage-only</text>
<text x="210.0" y="174.0" text-anchor="middle" font-family="Helvetica" font-size="11">0.50</text>
<rect x="275.0" y="180.0" width="70.0" height="120.0" fill="#1f77b4"/>
<text x="310.0" y="316" text-anchor="middle" font-family="Helvetica" font-size="9" transform="rotate(-25 310.0,316)">naive-majority</text>
<text x="310.0" y="174.0" text-anchor="middle" font-family="Helvetica" font-size="11">0.50</text>
<rect x="375.0" y="255.0" width="70.0" height="45.0" fill="#d62728"/>
<text x="410.0" y="316" text-anchor="middle" font-family="Helvetica" font-size="9" transform="rotate(-25 410.0,316)">purify-active</text>
<text x="410.0" y="249.0" text-anchor="middle" font-family="Helvetica" font-size="11">0.19</text>
<rect x="475.0" y="180.0" width="70.0" height="120.0" fill="#1f77b4"/>
<text x="510.0" y="316" text-anchor="middle" font-family="Helvetica" font-size="9" transform="rotate(-25 510.0,316)">purify-passive</text>
<text x="510.0" y="174.0" text-anchor="middle" font-family="Helvetica" font-size="11">0.50</text>
<rect x="575.0" y="180.0" width="70.0" height="120.0" fill="#1f77b4"/>
<text x="610.0" y="316" text-anchor="middle" font-family="Helvetica" font-size="9" transform="rotate(-25 610.0,316)">v3-logodds</text>
<text x="610.0" y="174.0" text-anchor="middle" font-family="Helvetica" font-size="11">0.50</text>
<text x="60" y="348" font-family="Helvetica" font-size="10">Source: results/v4-gpu/smoke-genesis/summary/aggregate.csv (Genesis gs.amdgpu, kinematic, fitted cal)</text>
</svg>
